<svg width="364" height="88" viewBox="0 0 364 88" fill="none" xmlns="http://www.w3.org/2000/svg">
<path d="M123.514 38.7188C123.582 37.7557 123.327 37.0099 122.747 36.4815C122.176 35.9531 121.273 35.6889 120.037 35.6889C119.219 35.6889 118.52 35.7955 117.94 36.0085C117.361 36.2131 116.905 36.5028 116.572 36.8778C116.24 37.2443 116.031 37.6705 115.946 38.1562C115.869 38.5398 115.891 38.8807 116.01 39.179C116.129 39.4773 116.338 39.7415 116.636 39.9716C116.943 40.2017 117.322 40.402 117.774 40.5724C118.234 40.7429 118.75 40.892 119.321 41.0199L121.469 41.5312C122.713 41.8125 123.791 42.1875 124.703 42.6562C125.624 43.1165 126.369 43.6747 126.94 44.331C127.511 44.9787 127.903 45.7244 128.116 46.5682C128.33 47.4119 128.347 48.358 128.168 49.4062C127.895 51.0597 127.243 52.4787 126.212 53.6634C125.189 54.848 123.851 55.7557 122.197 56.3864C120.553 57.017 118.639 57.3324 116.457 57.3324C114.276 57.3324 112.422 57.0043 110.896 56.348C109.379 55.6832 108.28 54.6818 107.598 53.3438C106.916 52.0057 106.733 50.3182 107.048 48.2812H113.095C113.001 49.125 113.108 49.8281 113.415 50.3906C113.73 50.9531 114.216 51.3793 114.872 51.669C115.528 51.9588 116.321 52.1037 117.25 52.1037C118.102 52.1037 118.848 51.9886 119.487 51.7585C120.135 51.5284 120.651 51.2088 121.034 50.7997C121.426 50.3906 121.665 49.9219 121.75 49.3935C121.835 48.9077 121.754 48.4858 121.507 48.1278C121.268 47.7699 120.859 47.4588 120.28 47.1946C119.709 46.9304 118.959 46.6918 118.03 46.4787L115.409 45.8395C113.244 45.3111 111.604 44.4673 110.487 43.3082C109.379 42.1491 108.987 40.5767 109.311 38.5909C109.584 36.9631 110.257 35.5398 111.331 34.321C112.413 33.1023 113.781 32.1562 115.435 31.483C117.097 30.8011 118.925 30.4602 120.919 30.4602C122.947 30.4602 124.652 30.8054 126.033 31.4957C127.422 32.1776 128.423 33.1406 129.037 34.3849C129.659 35.6207 129.838 37.0653 129.574 38.7188H123.514ZM130.111 57L134.457 30.8182H140.786L137.308 51.8608H148.2L147.331 57H130.111ZM150.607 57L154.953 30.8182H173.209L172.34 35.9574H160.412L159.543 41.3267H170.537L169.668 46.4787H158.674L157.804 51.8608H169.732L168.863 57H150.607ZM172.826 57L177.172 30.8182H195.428L194.559 35.9574H182.631L181.762 41.3267H192.756L191.887 46.4787H180.892L180.023 51.8608H191.951L191.081 57H172.826ZM195.044 57L199.391 30.8182H210.206C212.167 30.8182 213.799 31.1974 215.103 31.956C216.407 32.7145 217.331 33.7756 217.877 35.1392C218.422 36.5028 218.546 38.0838 218.248 39.8821C217.958 41.6974 217.306 43.2784 216.292 44.625C215.286 45.9716 213.99 47.0156 212.405 47.7571C210.82 48.4986 209.017 48.8693 206.998 48.8693H200.337L201.168 43.8835H206.665C207.628 43.8835 208.459 43.7173 209.158 43.3849C209.865 43.0526 210.432 42.5881 210.858 41.9915C211.284 41.3949 211.566 40.6918 211.702 39.8821C211.83 39.0724 211.779 38.3736 211.549 37.7855C211.319 37.1889 210.905 36.7287 210.309 36.4048C209.721 36.081 208.953 35.919 208.007 35.919H204.888L201.373 57H195.044ZM242.016 38.6676C241.931 37.7301 241.552 37.0014 240.879 36.4815C240.214 35.9531 239.263 35.6889 238.028 35.6889C237.21 35.6889 236.528 35.7955 235.982 36.0085C235.437 36.2216 235.028 36.5156 234.755 36.8906C234.482 37.2571 234.342 37.679 234.333 38.1562C234.316 38.5483 234.393 38.8935 234.563 39.1918C234.742 39.4901 234.998 39.7543 235.33 39.9844C235.671 40.206 236.08 40.402 236.558 40.5724C237.035 40.7429 237.572 40.892 238.168 41.0199L240.418 41.5312C241.714 41.8125 242.856 42.1875 243.844 42.6562C244.842 43.125 245.677 43.6832 246.35 44.331C247.032 44.9787 247.548 45.7244 247.897 46.5682C248.246 47.4119 248.425 48.358 248.434 49.4062C248.425 51.0597 248.008 52.4787 247.181 53.6634C246.354 54.848 245.165 55.7557 243.614 56.3864C242.072 57.017 240.21 57.3324 238.028 57.3324C235.837 57.3324 233.928 57.0043 232.3 56.348C230.673 55.6918 229.407 54.6946 228.504 53.3565C227.6 52.0185 227.136 50.3267 227.11 48.2812H233.17C233.221 49.125 233.447 49.8281 233.847 50.3906C234.248 50.9531 234.798 51.3793 235.496 51.669C236.204 51.9588 237.022 52.1037 237.951 52.1037C238.803 52.1037 239.528 51.9886 240.124 51.7585C240.729 51.5284 241.194 51.2088 241.518 50.7997C241.842 50.3906 242.008 49.9219 242.016 49.3935C242.008 48.8991 241.854 48.4773 241.556 48.1278C241.258 47.7699 240.798 47.4631 240.175 47.2074C239.562 46.9432 238.778 46.7003 237.823 46.4787L235.087 45.8395C232.82 45.3196 231.035 44.4801 229.731 43.321C228.427 42.1534 227.779 40.5767 227.788 38.5909C227.779 36.9716 228.214 35.5526 229.092 34.3338C229.969 33.1151 231.184 32.1648 232.735 31.483C234.286 30.8011 236.055 30.4602 238.04 30.4602C240.069 30.4602 241.829 30.8054 243.32 31.4957C244.82 32.1776 245.984 33.1364 246.81 34.3722C247.637 35.608 248.059 37.0398 248.076 38.6676H242.016ZM276.342 43.9091C276.342 46.7898 275.788 49.2315 274.68 51.2344C273.572 53.2372 272.072 54.7585 270.18 55.7983C268.296 56.8381 266.183 57.358 263.839 57.358C261.487 57.358 259.369 56.8338 257.485 55.7855C255.602 54.7372 254.106 53.2159 252.998 51.2216C251.898 49.2187 251.349 46.7812 251.349 43.9091C251.349 41.0284 251.898 38.5866 252.998 36.5838C254.106 34.581 255.602 33.0597 257.485 32.0199C259.369 30.9801 261.487 30.4602 263.839 30.4602C266.183 30.4602 268.296 30.9801 270.18 32.0199C272.072 33.0597 273.572 34.581 274.68 36.5838C275.788 38.5866 276.342 41.0284 276.342 43.9091ZM269.873 43.9091C269.873 42.2045 269.63 40.7642 269.144 39.5881C268.667 38.4119 267.977 37.5213 267.073 36.9162C266.178 36.3111 265.1 36.0085 263.839 36.0085C262.586 36.0085 261.508 36.3111 260.604 36.9162C259.701 37.5213 259.006 38.4119 258.521 39.5881C258.043 40.7642 257.805 42.2045 257.805 43.9091C257.805 45.6136 258.043 47.054 258.521 48.2301C259.006 49.4062 259.701 50.2969 260.604 50.902C261.508 51.5071 262.586 51.8097 263.839 51.8097C265.1 51.8097 266.178 51.5071 267.073 50.902C267.977 50.2969 268.667 49.4062 269.144 48.2301C269.63 47.054 269.873 45.6136 269.873 43.9091ZM295.876 30.8182H302.191V47.706C302.191 49.6577 301.727 51.358 300.798 52.8068C299.869 54.2472 298.573 55.3636 296.911 56.1562C295.249 56.9403 293.319 57.3324 291.12 57.3324C288.896 57.3324 286.952 56.9403 285.29 56.1562C283.629 55.3636 282.337 54.2472 281.417 52.8068C280.496 51.358 280.036 49.6577 280.036 47.706V30.8182H286.364V47.1562C286.364 48.0597 286.56 48.8651 286.952 49.5724C287.353 50.2798 287.911 50.8338 288.627 51.2344C289.343 51.6349 290.174 51.8352 291.12 51.8352C292.066 51.8352 292.893 51.6349 293.6 51.2344C294.316 50.8338 294.874 50.2798 295.275 49.5724C295.675 48.8651 295.876 48.0597 295.876 47.1562V30.8182ZM328.44 30.8182V57H323.071L312.652 41.8892H312.485V57H306.157V30.8182H311.603L321.907 45.9034H322.125V30.8182H328.44ZM342.097 57H332.419V30.8182H342.084C344.751 30.8182 347.048 31.3423 348.974 32.3906C350.909 33.4304 352.401 34.9304 353.449 36.8906C354.497 38.8423 355.021 41.1776 355.021 43.8963C355.021 46.6236 354.497 48.9673 353.449 50.9276C352.409 52.8878 350.922 54.392 348.987 55.4403C347.053 56.4801 344.756 57 342.097 57ZM338.747 51.6051H341.854C343.32 51.6051 344.56 51.358 345.574 50.8636C346.597 50.3608 347.368 49.5469 347.888 48.4219C348.416 47.2884 348.68 45.7798 348.68 43.8963C348.68 42.0128 348.416 40.5128 347.888 39.3963C347.359 38.2713 346.58 37.4616 345.548 36.9673C344.526 36.4645 343.264 36.2131 341.764 36.2131H338.747V51.6051Z" fill="#F3F4F6"/>
<path d="M66 8.25V5.87813C59.5203 2.14844 52.0094 0 44 0C19.6969 0 0 19.6969 0 44C0 68.3031 19.6969 88 44 88C68.3031 88 88 68.3031 88 44C88 35.9906 85.8516 28.4797 82.1219 22H74.25H66V13.75V12.375V11V8.25ZM44 11H46.75H57.75H60.5V13.75V15.125V16.5L59.4 17.325L53.1609 22H57.75H60.5V27.5H57.75H46.75H44V24.75V23.375V22L45.1 21.175L51.3391 16.5H46.75H44V11ZM37.125 66C37.125 64.1766 37.8493 62.428 39.1386 61.1386C40.428 59.8493 42.1766 59.125 44 59.125C45.8234 59.125 47.572 59.8493 48.8614 61.1386C50.1507 62.428 50.875 64.1766 50.875 66C50.875 67.8234 50.1507 69.572 48.8614 70.8614C47.572 72.1507 45.8234 72.875 44 72.875C42.1766 72.875 40.428 72.1507 39.1386 70.8614C37.8493 69.572 37.125 67.8234 37.125 66ZM67.925 40.2875L72.325 43.5875C66.4125 51.4766 54.5875 51.4766 48.675 43.5875L53.075 40.2875C56.7875 45.2375 64.2125 45.2375 67.925 40.2875ZM20.075 40.2875C23.7875 45.2375 31.2125 45.2375 34.925 40.2875L39.325 43.5875C33.4125 51.4766 21.5875 51.4766 15.675 43.5875L20.075 40.2875ZM74.25 0H71.5V5.5H74.25H78.8391L72.6 10.175L71.5 11V12.375V13.75V16.5H74.25H85.25H88V11H85.25H80.6609L86.9 6.325L88 5.5V4.125V2.75V0H85.25H74.25Z" fill="#F3F4F6"/>
</svg>
