<svg width="30" height="25" viewBox="0 0 30 25" fill="none" xmlns="http://www.w3.org/2000/svg">
<g clip-path="url(#clip0_328_12)">
<path d="M0.5 0.5L2 0.5L9.5 0.5L10.1234 0.5L10.5641 0.940625L15.5 5.87657L20.4406 0.940625L20.8813 0.5L21.5 0.5L29 0.5L30.5 0.5V2L30.5 14V15.5H29L21.5 15.5H20.8766L20.436 15.0593L15.5 10.1234L10.5594 15.0593L10.1188 15.5H9.5L2 15.5H0.5L0.5 14L0.5 2L0.5 0.5ZM13.3766 8L8.87656 3.5L3.5 3.5L3.5 12.5L8.87656 12.5L13.3766 8ZM17.6187 8L22.1187 12.5H27.5L27.5 3.5L22.1234 3.5L17.6234 8H17.6187Z" fill="white"/>
</g>
<defs>
<clipPath id="clip0_328_12">
<rect width="19" height="14" fill="white" transform="translate(6 1)"/>
</clipPath>
</defs>
</svg>
